<svg width="50" height="50" viewBox="0 0 50 50" fill="none" xmlns="http://www.w3.org/2000/svg">
<g id="cv icon">
<g id="Layer_1">
<g id="Group">
<path id="Vector" d="M25 50C38.8071 50 50 38.8071 50 25C50 11.1929 38.8071 0 25 0C11.1929 0 0 11.1929 0 25C0 38.8071 11.1929 50 25 50Z" fill="#77B3D4"/>
</g>
<g id="Group_2" opacity="0.2">
<path id="Vector_2" d="M37.5 10.9375H12.5C10.7812 10.9375 9.375 12.3437 9.375 14.0625V18.3594V39.0625C9.375 40.7813 10.7812 42.1875 12.5 42.1875H37.5C39.2188 42.1875 40.625 40.7813 40.625 39.0625V18.3594V14.0625C40.625 12.3437 39.2188 10.9375 37.5 10.9375Z" fill="#231F20"/>
</g>
<g id="Group_3">
<path id="Vector_3" d="M37.5 9.375H12.5C10.7812 9.375 9.375 10.7812 9.375 12.5V16.7969V37.5C9.375 39.2188 10.7812 40.625 12.5 40.625H37.5C39.2188 40.625 40.625 39.2188 40.625 37.5V16.7969V12.5C40.625 10.7812 39.2188 9.375 37.5 9.375Z" fill="#E0995E"/>
</g>
<g id="Group_4" opacity="0.2">
<path id="Vector_4" d="M37.5 14.0625H12.5V39.0625H37.5V14.0625Z" fill="#231F20"/>
</g>
<g id="Group_5">
<path id="Vector_5" d="M37.5 12.5H12.5V37.5H37.5V12.5Z" fill="white"/>
</g>
<g id="Group_6">
<path id="Vector_6" d="M32.8125 18.75H17.1875V20.3125H32.8125V18.75Z" fill="#E0E0D1"/>
</g>
<g id="Group_7">
<path id="Vector_7" d="M32.8125 21.875H17.1875V23.4375H32.8125V21.875Z" fill="#E0E0D1"/>
</g>
<g id="Group_8">
<path id="Vector_8" d="M32.8125 25H17.1875V26.5625H32.8125V25Z" fill="#E0E0D1"/>
</g>
<g id="Group_9">
<path id="Vector_9" d="M32.8125 28.125H17.1875V29.6875H32.8125V28.125Z" fill="#E0E0D1"/>
</g>
<g id="Group_10">
<path id="Vector_10" d="M32.8125 31.25H17.1875V32.8125H32.8125V31.25Z" fill="#E0E0D1"/>
</g>
<g id="Group_11" opacity="0.2">
<path id="Vector_11" d="M28.9062 9.375H21.0938H18.75V11.7188V12.5V13.2812C18.75 14.6094 19.7656 15.625 21.0938 15.625H28.9062C30.2344 15.625 31.25 14.6094 31.25 13.2812V12.5V11.7188V9.375H28.9062Z" fill="#231F20"/>
</g>
<g id="Group_12">
<path id="Vector_12" d="M28.9062 7.8125H21.0938H18.75V10.1562V10.9375V11.7188C18.75 13.0469 19.7656 14.0625 21.0938 14.0625H28.9062C30.2344 14.0625 31.25 13.0469 31.25 11.7188V10.9375V10.1562V7.8125H28.9062Z" fill="#4F5D73"/>
</g>
</g>
</g>
</svg>
