<svg width="50" height="50" viewBox="0 0 50 50" fill="none" xmlns="http://www.w3.org/2000/svg">
<g id="mobilit&#195;&#169; icon">
<path id="Vector" d="M25 50C38.8071 50 50 38.8071 50 25C50 11.1929 38.8071 0 25 0C11.1929 0 0 11.1929 0 25C0 38.8071 11.1929 50 25 50Z" fill="#E0E0D1"/>
<g id="Group">
<path id="Vector_2" opacity="0.2" d="M15.625 39.0625C15.625 39.9219 14.9219 40.625 14.0625 40.625H12.5C11.6406 40.625 10.9375 39.9219 10.9375 39.0625V30.4688C10.9375 29.6094 11.6406 28.9062 12.5 28.9062H14.0625C14.9219 28.9062 15.625 29.6094 15.625 30.4688V39.0625Z" fill="#231F20"/>
<path id="Vector_3" opacity="0.2" d="M39.0625 39.0625C39.0625 39.9219 38.3594 40.625 37.5 40.625H35.9375C35.0781 40.625 34.375 39.9219 34.375 39.0625V30.4688C34.375 29.6094 35.0781 28.9062 35.9375 28.9062H37.5C38.3594 28.9062 39.0625 29.6094 39.0625 30.4688V39.0625Z" fill="#231F20"/>
<path id="Vector_4" d="M15.625 37.5C15.625 38.3594 14.9219 39.0625 14.0625 39.0625H12.5C11.6406 39.0625 10.9375 38.3594 10.9375 37.5V28.9062C10.9375 28.0469 11.6406 27.3438 12.5 27.3438H14.0625C14.9219 27.3438 15.625 28.0469 15.625 28.9062V37.5Z" fill="#4F5D73"/>
<path id="Vector_5" d="M39.0625 37.5C39.0625 38.3594 38.3594 39.0625 37.5 39.0625H35.9375C35.0781 39.0625 34.375 38.3594 34.375 37.5V28.9062C34.375 28.0469 35.0781 27.3438 35.9375 27.3438H37.5C38.3594 27.3438 39.0625 28.0469 39.0625 28.9062V37.5Z" fill="#4F5D73"/>
<g id="Group_2" opacity="0.2">
<path id="Vector_6" d="M34.375 28.9062H15.625C13.0469 28.9062 10.9375 26.7969 10.9375 24.2188V23.9063L12.5 16.0156C13.2812 13.2812 15 11.7188 17.1875 11.7188H32.8125C35 11.7188 36.7188 13.2812 37.4219 16.0156V16.0938L39.0625 24.2188C39.0625 26.7969 36.9531 28.9062 34.375 28.9062ZM14.0625 24.375C14.1406 25.1563 14.7656 25.7812 15.625 25.7812H34.375C35.1562 25.7812 35.8594 25.1563 35.9375 24.375L34.4531 16.7969C34.2187 16.1719 33.75 14.8438 32.8125 14.8438H17.1875C16.25 14.8438 15.7812 16.1719 15.5469 16.7969L14.0625 24.375Z" fill="#231F20"/>
</g>
<path id="Vector_7" d="M37.5 22.6562C37.5 24.375 36.0938 25.7812 34.375 25.7812H15.625C13.9062 25.7812 12.5 24.375 12.5 22.6562L14.0625 14.8438C14.4531 13.2812 15.4687 11.7188 17.1875 11.7188H32.8125C34.5313 11.7188 35.5469 13.2812 35.9375 14.8438L37.5 22.6562Z" stroke="#C75C5C" stroke-width="4" stroke-miterlimit="10"/>
<g id="Group_3" opacity="0.2">
<path id="Vector_8" d="M40.625 32.8125C40.625 34.5313 39.2188 35.9375 37.5 35.9375H12.5C10.7812 35.9375 9.375 34.5313 9.375 32.8125V28.9062C9.375 27.1875 10.7812 25.7812 12.5 25.7812H37.5C39.2188 25.7812 40.625 27.1875 40.625 28.9062V32.8125Z" fill="#231F20"/>
<path id="Vector_9" d="M37.5 37.5H12.5C9.92188 37.5 7.8125 35.3906 7.8125 32.8125V28.9062C7.8125 26.3281 9.92188 24.2188 12.5 24.2188H37.5C40.0781 24.2188 42.1875 26.3281 42.1875 28.9062V32.8125C42.1875 35.3906 40.0781 37.5 37.5 37.5ZM12.5 27.3438C11.6406 27.3438 10.9375 28.0469 10.9375 28.9062V32.8125C10.9375 33.6719 11.6406 34.375 12.5 34.375H37.5C38.3594 34.375 39.0625 33.6719 39.0625 32.8125V28.9062C39.0625 28.0469 38.3594 27.3438 37.5 27.3438H12.5Z" fill="#231F20"/>
</g>
<path id="Vector_10" d="M40.625 31.25C40.625 32.9688 39.2188 34.375 37.5 34.375H12.5C10.7812 34.375 9.375 32.9688 9.375 31.25V27.3438C9.375 25.625 10.7812 24.2188 12.5 24.2188H37.5C39.2188 24.2188 40.625 25.625 40.625 27.3438V31.25Z" fill="#C75C5C" stroke="#C75C5C" stroke-width="4" stroke-miterlimit="10"/>
<path id="Vector_11" d="M16.4062 29.6875C16.4062 31.4063 15 32.8125 13.2812 32.8125C11.5625 32.8125 10.1562 31.4063 10.1562 29.6875C10.1562 27.9687 11.5625 26.5625 13.2812 26.5625C15 26.5625 16.4062 27.9687 16.4062 29.6875Z" fill="#F5CF87" stroke="#C75C5C" stroke-width="2" stroke-miterlimit="10"/>
<path id="Vector_12" d="M39.8438 29.6875C39.8438 31.4063 38.4375 32.8125 36.7188 32.8125C35 32.8125 33.5938 31.4063 33.5938 29.6875C33.5938 27.9687 35 26.5625 36.7188 26.5625C38.4375 26.5625 39.8438 27.9687 39.8438 29.6875Z" fill="#F5CF87" stroke="#C75C5C" stroke-width="2" stroke-miterlimit="10"/>
</g>
</g>
</svg>
