<svg width="50" height="50" viewBox="0 0 50 50" fill="none" xmlns="http://www.w3.org/2000/svg">
<g id="phone icon">
<g id="Layer_1">
<g id="Group">
<path id="Vector" d="M25 50C38.8071 50 50 38.8071 50 25C50 11.1929 38.8071 0 25 0C11.1929 0 0 11.1929 0 25C0 38.8071 11.1929 50 25 50Z" fill="#E0995E"/>
</g>
<g id="Group_2" opacity="0.2">
<g id="Group_3">
<path id="Vector_2" d="M34.375 37.5C34.375 39.2188 32.9688 40.625 31.25 40.625H18.75C17.0312 40.625 15.625 39.2188 15.625 37.5V12.5C15.625 10.7812 17.0312 9.375 18.75 9.375H31.25C32.9688 9.375 34.375 10.7812 34.375 12.5V37.5Z" fill="#231F20"/>
</g>
</g>
<g id="Group_4">
<g id="Group_5">
<path id="Vector_3" d="M18.75 37.8906C17.6563 37.8906 16.7969 37.0312 16.7969 35.9375V10.9375C16.7969 9.84375 17.6563 8.98438 18.75 8.98438H31.25C32.3437 8.98438 33.2031 9.84375 33.2031 10.9375V35.9375C33.2031 37.0312 32.3437 37.8906 31.25 37.8906H18.75Z" fill="#4F5D73"/>
</g>
<g id="Group_6">
<path id="Vector_4" d="M31.25 10.1562C31.7188 10.1562 32.0312 10.4687 32.0312 10.9375V35.9375C32.0312 36.4063 31.7188 36.7188 31.25 36.7188H18.75C18.2812 36.7188 17.9688 36.4063 17.9688 35.9375V10.9375C17.9688 10.4687 18.2812 10.1562 18.75 10.1562H31.25ZM31.25 7.8125H18.75C17.0312 7.8125 15.625 9.21875 15.625 10.9375V35.9375C15.625 37.6563 17.0312 39.0625 18.75 39.0625H31.25C32.9688 39.0625 34.375 37.6563 34.375 35.9375V10.9375C34.375 9.21875 32.9688 7.8125 31.25 7.8125Z" fill="white"/>
</g>
</g>
<g id="Group_7" opacity="0.2">
<path id="Vector_5" d="M20.4688 8.98438L32.8125 38.75V8.98438H20.4688Z" fill="white"/>
</g>
<g id="Group_8">
<path id="Vector_6" d="M31.25 39.0625H18.75L15.625 32.8125H34.375L31.25 39.0625Z" fill="white"/>
</g>
<g id="Group_9">
<path id="Vector_7" d="M25 37.5C25.8629 37.5 26.5625 36.8004 26.5625 35.9375C26.5625 35.0746 25.8629 34.375 25 34.375C24.1371 34.375 23.4375 35.0746 23.4375 35.9375C23.4375 36.8004 24.1371 37.5 25 37.5Z" fill="#E0E0D1"/>
</g>
</g>
</g>
</svg>
