<svg width="50" height="50" viewBox="0 0 50 50" fill="none" xmlns="http://www.w3.org/2000/svg">
<g id="code icon">
<path id="Vector" d="M15.0167 3.92152C15.8954 3.09042 15.9666 1.66812 15.1758 0.744667C14.3851 -0.178757 13.0317 -0.253619 12.1531 0.577486L7.19467 5.26761C5.0933 7.25512 3.35018 8.90381 2.15327 10.3992C0.894664 11.9715 0 13.6609 0 15.7463C0 17.8318 0.894664 19.5213 2.15327 21.0935C3.35018 22.5889 5.09328 24.2377 7.19464 26.225L12.1531 30.9153C13.0317 31.7464 14.3851 31.6714 15.1758 30.7479C15.9666 29.8245 15.8954 28.4022 15.0167 27.5711L10.1754 22.9918C7.92692 20.8649 6.41099 19.4241 5.429 18.1974C4.48653 17.0198 4.28069 16.3325 4.28069 15.7463C4.28069 15.1602 4.48653 14.4728 5.429 13.2954C6.41099 12.0685 7.92692 10.6277 10.1754 8.50091L15.0167 3.92152Z" fill="black"/>
<path id="Vector_2" d="M31.2198 0.586533C32.3621 0.905658 33.0419 2.13768 32.7386 3.33836L21.3608 48.328C21.0571 49.5286 19.8851 50.243 18.7426 49.9239C17.6001 49.6048 16.9202 48.3729 17.2238 47.1723L28.6014 2.1827C28.9051 0.982051 30.0774 0.267407 31.2198 0.586533Z" fill="black"/>
<path id="Vector_3" d="M34.8241 19.2516C35.6149 18.3281 36.9681 18.2532 37.8468 19.0843L42.8053 23.7746C44.9068 25.7619 46.6499 27.4106 47.8468 28.9061C49.1053 30.4786 50 32.1678 50 34.2532C50 36.3386 49.1053 38.0281 47.8468 39.6004C46.6499 41.0958 44.9068 42.7445 42.8053 44.7319L37.8468 49.4222C36.9681 50.2533 35.6149 50.1783 34.8241 49.2548C34.0333 48.3313 34.1046 46.909 34.9833 46.0779L39.8245 41.4986C42.073 39.3718 43.5889 37.931 44.5709 36.7042C45.5135 35.5267 45.7193 34.8393 45.7193 34.2532C45.7193 33.6671 45.5135 32.9797 44.5709 31.8022C43.5889 30.5755 42.073 29.1346 39.8245 27.0078L34.9833 22.4285C34.1046 21.5974 34.0333 20.1751 34.8241 19.2516Z" fill="black"/>
</g>
</svg>
