<svg width="50" height="50" viewBox="0 0 50 50" fill="none" xmlns="http://www.w3.org/2000/svg">
<g id="gear icon">
<g id="Group">
<path id="Vector" d="M48.4283 31.1106L44.7976 30.5826C44.5702 30.5652 44.3742 30.4222 44.2871 30.2115L43.1099 27.371C43.0219 27.1611 43.0585 26.9206 43.2076 26.7481L45.3797 23.8301C45.7248 23.4257 45.7021 22.8229 45.3256 22.4465L43.6067 20.7284C43.2311 20.352 42.6273 20.3276 42.224 20.6744L39.3051 22.8456C39.1334 22.9938 38.8913 23.0321 38.6821 22.945L35.8409 21.767C35.6308 21.6808 35.4872 21.4813 35.4688 21.2565L34.9425 17.6267C34.9007 17.0953 34.4582 16.6858 33.9267 16.6858H31.4958C30.9635 16.6858 30.5209 17.0953 30.4799 17.6267L29.9519 21.2565C29.9353 21.4831 29.7916 21.6808 29.5816 21.767L26.7395 22.945C26.5294 23.0321 26.289 22.9938 26.1157 22.8456L23.1985 20.6744C22.7952 20.3285 22.1922 20.3519 21.815 20.7284L20.0968 22.4465C19.7205 22.8229 19.6978 23.4258 20.0427 23.8301L22.214 26.7489C22.3613 26.9206 22.4005 27.1619 22.3126 27.371L21.1354 30.2115C21.0501 30.4223 20.8514 30.5652 20.6257 30.5835L16.9934 31.1107C16.4636 31.1526 16.0542 31.5952 16.0542 32.1275V34.5575C16.0542 35.0889 16.4637 35.5334 16.9934 35.5734L20.6257 36.1005C20.8514 36.1189 21.0501 36.2626 21.1354 36.4726L22.3126 39.313C22.4005 39.5239 22.3614 39.7652 22.214 39.9369L20.0427 42.8557C19.6977 43.26 19.7204 43.8611 20.0968 44.2393L21.815 45.9575C22.1922 46.3338 22.7952 46.3565 23.1985 46.0106L26.1157 43.8384C26.289 43.6921 26.5294 43.6529 26.7395 43.741L29.5816 44.9171C29.7917 45.0052 29.9353 45.2021 29.9529 45.4294L30.48 49.0592C30.5218 49.5898 30.9636 50.0002 31.4959 50.0002H33.9268C34.4591 50.0002 34.9008 49.5898 34.9426 49.0592L35.4689 45.4294C35.4873 45.2021 35.6309 45.0052 35.841 44.9171L38.6831 43.741C38.8922 43.6529 39.1344 43.6921 39.306 43.8384L42.2241 46.0106C42.6274 46.3565 43.2313 46.3338 43.6068 45.9575L45.3257 44.2393C45.7031 43.8611 45.7249 43.26 45.3798 42.8557L43.2077 39.9369C43.0613 39.7652 43.0221 39.5239 43.11 39.313L44.2872 36.4726C44.3743 36.2626 44.5703 36.1189 44.7977 36.1005L48.4284 35.5734C48.959 35.5334 49.3685 35.0889 49.3685 34.5575V32.1275C49.3684 31.5951 48.9589 31.1525 48.4283 31.1106ZM36.705 37.3369C35.6376 38.4025 34.2202 38.9898 32.7111 38.9898C31.2029 38.9898 29.7835 38.4025 28.7171 37.3369C27.6507 36.2687 27.0626 34.8511 27.0626 33.342C27.0626 31.8338 27.6506 30.4154 28.7171 29.3489C29.7835 28.2806 31.2029 27.6952 32.7111 27.6952C34.2203 27.6952 35.6377 28.2806 36.705 29.3489C37.7714 30.4153 38.3587 31.8338 38.3587 33.342C38.3587 34.8511 37.7715 36.2687 36.705 37.3369Z" fill="black"/>
<path id="Vector_2" d="M17.9802 24.6246C18.374 24.4835 18.591 24.0635 18.4804 23.661L17.9045 20.8432C17.8584 20.6706 17.9115 20.4869 18.043 20.3666L19.8265 18.7435C19.9572 18.6242 20.1472 18.5884 20.3119 18.6511L23.0424 19.4779C23.432 19.6251 23.8711 19.4492 24.0489 19.071L24.8591 17.3468C25.0385 16.9678 24.8949 16.5182 24.5324 16.3125L22.1555 14.7364C22.0012 14.6475 21.908 14.4793 21.9176 14.3016L22.0309 11.8934C22.0405 11.7148 22.1467 11.5571 22.3081 11.4838L24.8479 10.1289C25.2286 9.95902 25.4125 9.52171 25.2713 9.13138L24.6265 7.33734C24.4845 6.94437 24.0645 6.7266 23.6621 6.83724L20.8434 7.41136C20.6709 7.46019 20.4887 7.40619 20.3677 7.27367L18.7453 5.49124C18.6242 5.35873 18.5877 5.1724 18.652 5.00511L19.479 2.27621C19.6261 1.88499 19.4503 1.44671 19.0712 1.26976L17.3478 0.458628C16.9697 0.280795 16.5183 0.422885 16.3119 0.786167L14.7366 3.16312C14.6485 3.31742 14.4804 3.41048 14.3026 3.40189L11.8944 3.28773C11.7167 3.27992 11.5563 3.17005 11.484 3.0097L10.1309 0.470835C9.95924 0.0901705 9.52359 -0.0938139 9.1315 0.047397L7.33844 0.693003C6.94547 0.834213 6.72769 1.25335 6.83922 1.6558L7.41422 4.47533C7.46129 4.64603 7.40816 4.8308 7.27574 4.95013L5.49215 6.57415C5.35973 6.69349 5.17242 6.73011 5.00514 6.66742L2.27623 5.83968C1.88678 5.69164 1.44849 5.86937 1.26988 6.2474L0.45953 7.97093C0.281795 8.34906 0.423788 8.80042 0.786288 9.00599L3.16314 10.5822C3.31822 10.6702 3.4106 10.8375 3.40103 11.0153L3.28775 13.4235C3.28082 13.603 3.17183 13.7598 3.0107 13.8329L0.470858 15.1877C0.0899986 15.3585 -0.0937905 15.7951 0.0474204 16.1854L0.693026 17.9793C0.834139 18.3723 1.25416 18.5901 1.65582 18.4804L4.47623 17.9036C4.64703 17.8566 4.8317 17.9106 4.95103 18.043L6.5733 19.8257C6.69439 19.9581 6.72935 20.1463 6.66646 20.3127L5.83971 23.0416C5.69332 23.432 5.86939 23.8702 6.24742 24.048L7.97086 24.8582C8.34986 25.0369 8.80025 24.8931 9.0068 24.5315L10.5812 22.1537C10.6701 22.0004 10.8374 21.9063 11.016 21.9166L13.4243 22.0299C13.6029 22.0387 13.7615 22.145 13.8355 22.3078L15.1878 24.8458C15.3603 25.2267 15.7951 25.4122 16.1871 25.271L17.9802 24.6246ZM14.1597 16.8258C13.047 17.2257 11.8439 17.17 10.773 16.6663C9.70221 16.1627 8.89361 15.2723 8.49195 14.1587C8.09205 13.0452 8.14781 11.8429 8.65152 10.773C9.15504 9.7013 10.0463 8.89271 11.159 8.49203C12.2725 8.09115 13.4749 8.14691 14.5448 8.65228C15.6147 9.15413 16.4251 10.0447 16.8266 11.1581C17.2266 12.2717 17.17 13.4732 16.6672 14.5441C16.1619 15.6139 15.2722 16.4242 14.1597 16.8258Z" fill="black"/>
</g>
</g>
</svg>
