<svg width="50" height="50" viewBox="0 0 50 50" fill="none" xmlns="http://www.w3.org/2000/svg">
<g id="layer icon">
<path id="Vector" d="M14.8242 3.4139C19.1889 1.27558 21.7926 0 25 0C28.2074 0 30.8112 1.27558 35.1758 3.4139L42.0816 6.79619C44.3014 7.88341 46.0995 8.764 47.3337 9.55633C47.9584 9.95732 48.5635 10.4119 49.0302 10.96C49.5098 11.523 50 12.377 50 13.5258C50 14.6745 49.5098 15.5285 49.0302 16.0915C48.5635 16.6396 47.9584 17.0942 47.3337 17.4952C46.0995 18.2875 44.3014 19.1681 42.0816 20.2553L35.1758 23.6376C30.8112 25.7758 28.2074 27.0515 25 27.0515C21.7926 27.0515 19.1889 25.7758 14.8243 23.6376L7.91849 20.2553C5.69853 19.1681 3.90047 18.2875 2.66621 17.4952C2.04153 17.0942 1.4364 16.6396 0.969791 16.0915C0.490349 15.5285 0 14.6745 0 13.5258C0 12.377 0.490349 11.523 0.969791 10.96C1.4364 10.4119 2.04153 9.95732 2.66621 9.55633C3.90049 8.764 5.69853 7.88341 7.91851 6.79616L14.8242 3.4139Z" fill="black"/>
<path id="Vector_2" opacity="0.7" d="M2.91274 23.3305L2.90463 23.3219C2.18749 22.5394 1.08749 22.6137 0.445535 23.4899C-0.197697 24.3678 -0.137139 25.719 0.579907 26.5066C0.579907 26.5066 0.579186 26.5057 1.74388 24.916L0.579907 26.5066L0.582419 26.5091L0.586512 26.5137L0.597256 26.5254L0.629116 26.5595C0.654977 26.5869 0.690023 26.6236 0.734256 26.6686C0.822768 26.7592 0.948093 26.8839 1.1103 27.0374C1.4347 27.3443 1.90679 27.7663 2.52672 28.2587C3.76647 29.2431 5.59872 30.5096 8.0236 31.6971L14.5549 34.896L14.8239 35.0278C19.1886 37.166 21.7921 38.4417 24.9998 38.4417C28.2072 38.4417 30.8109 37.166 35.1753 35.0278L35.4444 34.896L41.9758 31.6971C44.4007 30.5096 46.233 29.2431 47.4726 28.2587C48.0926 27.7663 48.5647 27.3443 48.8891 27.0374C49.0514 26.8839 49.1765 26.7592 49.2651 26.6686C49.3093 26.6236 49.3444 26.5869 49.3702 26.5595L49.4021 26.5254L49.4128 26.5137L49.417 26.5091L49.4202 26.5057C50.1372 25.7181 50.197 24.3678 49.554 23.4899C48.9119 22.6137 47.8123 22.5388 47.0953 23.3213L47.0914 23.3256L47.0867 23.3305C47.0765 23.3416 47.0572 23.3615 47.0293 23.39C46.9735 23.4472 46.8823 23.538 46.756 23.6576C46.503 23.8971 46.1093 24.2505 45.5746 24.6751C44.5051 25.5242 42.8737 26.6572 40.6802 27.7313L34.1488 30.9302C29.44 33.2364 27.4658 34.1704 24.9998 34.1704C22.5337 34.1704 20.5593 33.2364 15.8505 30.9302L9.31916 27.7313C7.12572 26.6572 5.49421 25.5242 4.42481 24.6751C3.89014 24.2505 3.49628 23.8971 3.24337 23.6576C3.11695 23.538 3.02581 23.4472 2.96998 23.39C2.94207 23.3615 2.923 23.3416 2.91274 23.3305Z" fill="black"/>
<path id="Vector_3" opacity="0.4" d="M2.90426 34.8796C2.18709 34.0971 1.08749 34.172 0.445535 35.0481C-0.197697 35.926 -0.137139 37.2772 0.579907 38.0648L0.582419 38.0674L0.586512 38.0719L0.597256 38.0836L0.629116 38.1175C0.654977 38.1451 0.690023 38.1816 0.734256 38.2268C0.822768 38.3174 0.948093 38.4421 1.1103 38.5956C1.4347 38.9026 1.90679 39.3246 2.52672 39.8169C3.76647 40.8013 5.59872 42.0676 8.0236 43.2553L14.5549 46.4542L14.8239 46.586C19.1886 48.7242 21.7921 49.9999 24.9998 49.9999C28.2072 49.9999 30.8109 48.7242 35.1753 46.586L35.4444 46.4542L41.9758 43.2553C44.4007 42.0676 46.233 40.8013 47.4726 39.8169C48.0926 39.3246 48.5647 38.9026 48.8891 38.5956C49.0514 38.4421 49.1765 38.3174 49.2651 38.2268C49.3093 38.1816 49.3444 38.1451 49.3702 38.1175L49.4021 38.0836L49.4128 38.0719L49.417 38.0674L49.4202 38.064C50.1372 37.2763 50.197 35.926 49.554 35.0481C48.9119 34.172 47.8123 34.0971 47.0953 34.8796L47.0914 34.8836L47.0867 34.8887C47.0765 34.8995 47.0572 34.9197 47.0293 34.9482C46.9735 35.0051 46.8823 35.0963 46.756 35.2159C46.503 35.4553 46.1093 35.8087 45.5746 36.2333C44.5051 37.0824 42.8737 38.2152 40.6802 39.2895L34.1488 42.4884C29.44 44.7947 27.4658 45.7286 24.9998 45.7286C22.5337 45.7286 20.5593 44.7947 15.8505 42.4884L9.31916 39.2895C7.12572 38.2152 5.49421 37.0824 4.42481 36.2333C3.89014 35.8087 3.49628 35.4553 3.24337 35.2159C3.11695 35.0963 3.02581 35.0051 2.96998 34.9482C2.94207 34.9197 2.923 34.8995 2.91274 34.8887L2.90426 34.8796Z" fill="black"/>
</g>
</svg>
