<svg width="42" height="42" viewBox="0 0 42 42" fill="none" xmlns="http://www.w3.org/2000/svg">
<g id="SVGRepo_iconCarrier">
<path id="Vector" d="M30.7242 24.7754C29.6162 24.4369 28.5584 23.9581 27.5776 23.3512C28.8082 21.9693 29.7937 20.396 30.4931 18.6965C30.8309 18.5102 31.1128 18.2407 31.3109 17.9149C32.6086 15.6744 32.9108 13.8855 32.2353 12.4612C32.0242 12.0179 31.7145 11.6263 31.3287 11.3149C31.3035 10.0379 31.1306 8.76769 30.8131 7.52862C30.1336 5.53917 28.8027 3.82351 27.026 2.6464C25.2493 1.4693 23.1254 0.896172 20.9822 1.01547C18.8419 0.900086 16.7222 1.47504 14.9491 2.65187C13.176 3.8287 11.8479 5.54218 11.1691 7.52862C10.8513 8.76173 10.6784 10.0262 10.6536 11.2976C10.2702 11.6044 9.96071 11.9898 9.74691 12.4265C9.07137 13.8507 9.37359 15.6397 10.6713 17.8976C10.8712 18.2175 11.1531 18.4809 11.4891 18.6618C12.1886 20.3613 13.174 21.9345 14.4046 23.3165C13.424 23.9236 12.3661 24.4024 11.258 24.7407C7.06253 26.0433 1.4271 28.7875 1.00044 37.6281C0.991242 38.0319 1.12645 38.4263 1.38278 38.7434C1.63911 39.0604 2.00054 39.2802 2.40485 39.3649C8.53468 40.4948 14.7622 41.0416 21 40.9975C27.2378 41.0417 33.4653 40.4949 39.5951 39.3649C39.9995 39.2802 40.3609 39.0604 40.6172 38.7434C40.8736 38.4263 41.0088 38.0319 40.9996 37.6281C40.5551 28.8049 34.9197 26.0607 30.7242 24.7754ZM13.5691 15.9002C13.1927 15.3293 12.9837 14.6685 12.9646 13.9897C13.3425 13.8782 13.6717 13.647 13.9002 13.3325C14.1288 13.018 14.2437 12.6382 14.2268 12.2528C14.1774 10.9801 14.303 9.70663 14.6001 8.46651C15.0582 7.20477 15.9356 6.12924 17.0924 5.41151C18.2491 4.69377 19.6185 4.37517 20.9822 4.50652C22.3415 4.37289 23.7076 4.68648 24.8637 5.39757C26.0199 6.10865 26.8999 7.17651 27.3643 8.43178C27.6684 9.67684 27.7999 10.9562 27.7554 12.2355C27.7386 12.6208 27.8535 13.0006 28.082 13.3151C28.3105 13.6296 28.6397 13.8608 29.0176 13.9723C28.9956 14.6586 28.7803 15.3257 28.3954 15.9002C27.8683 16.157 27.4659 16.6062 27.2754 17.1507C26.9021 18.4012 24.2888 23.2991 20.9822 23.2991C17.6756 23.2991 15.0624 18.3665 14.689 17.116C14.4922 16.5836 14.0903 16.1473 13.5691 15.9002ZM20.9822 37.6107C15.5221 37.6203 10.0702 37.1962 4.68036 36.3428C5.44479 30.976 8.78694 29.2044 12.3246 28.1102C14.1074 27.581 15.7847 26.7586 17.2845 25.6786C18.4167 26.3722 19.7259 26.74 21.0622 26.74C22.3985 26.74 23.7078 26.3722 24.8399 25.6786C26.3218 26.7333 27.9744 27.5376 29.7287 28.0581C33.2842 29.1523 36.6085 30.9238 37.373 36.2907C31.9549 37.1606 26.473 37.5962 20.9822 37.5933V37.6107Z" fill="#F1F5F9" stroke="#F1F5F9"/>
</g>
</svg>
