<svg width="40" height="40" viewBox="0 0 40 40" fill="none" xmlns="http://www.w3.org/2000/svg">
<g id="SVGRepo_iconCarrier">
<path id="Vector" d="M12.0134 3.13722C12.7163 2.47234 12.7733 1.3345 12.1406 0.595733C11.508 -0.143006 10.4254 -0.202895 9.72248 0.461989L5.75573 4.21409C4.07464 5.8041 2.68014 7.12305 1.72262 8.31933C0.715731 9.57724 0 10.9287 0 12.5971C0 14.2654 0.715731 15.617 1.72262 16.8748C2.68014 18.0712 4.07462 19.3901 5.75571 20.98L9.72248 24.7322C10.4254 25.3971 11.508 25.3371 12.1406 24.5983C12.7733 23.8596 12.7163 22.7218 12.0134 22.0569L8.14029 18.3934C6.34154 16.692 5.12879 15.5393 4.3432 14.5579C3.58923 13.6159 3.42455 13.066 3.42455 12.5971C3.42455 12.1282 3.58923 11.5783 4.3432 10.6363C5.12879 9.65484 6.34154 8.50215 8.14029 6.80073L12.0134 3.13722Z" fill="#F1F5F9"/>
<path id="Vector_2" d="M24.9758 0.469275C25.8897 0.724575 26.4335 1.71019 26.1908 2.67074L17.0886 38.6624C16.8457 39.6229 15.9081 40.1945 14.9941 39.9391C14.0801 39.6838 13.5362 38.6984 13.7791 37.7379L22.8811 1.74621C23.1241 0.78569 24.0619 0.213975 24.9758 0.469275Z" fill="#F1F5F9"/>
<path id="Vector_3" d="M27.8593 15.4012C28.4919 14.6625 29.5745 14.6025 30.2775 15.2674L34.2442 19.0196C35.9255 20.6095 37.3199 21.9284 38.2774 23.1248C39.2843 24.3828 40 25.7342 40 27.4025C40 29.0709 39.2843 30.4225 38.2774 31.6802C37.3199 32.8766 35.9255 34.1956 34.2442 35.7854L30.2775 39.5377C29.5745 40.2026 28.4919 40.1426 27.8593 39.4038C27.2266 38.665 27.2837 37.5272 27.9867 36.8623L31.8596 33.1988C33.6584 31.4974 34.8712 30.3447 35.6567 29.3633C36.4108 28.4213 36.5754 27.8714 36.5754 27.4025C36.5754 26.9337 36.4108 26.3837 35.6567 25.4417C34.8712 24.4603 33.6584 23.3076 31.8596 21.6062L27.9867 17.9427C27.2837 17.2779 27.2266 16.14 27.8593 15.4012Z" fill="#F1F5F9"/>
</g>
</svg>
