<svg width="60" height="60" viewBox="0 0 60 60" fill="none" xmlns="http://www.w3.org/2000/svg">
<g id="CV icon">
<path id="Rectangle 1" d="M0 30C0 13.4315 13.4315 0 30 0C46.5685 0 60 13.4315 60 30C60 46.5685 46.5685 60 30 60C13.4315 60 0 46.5685 0 30Z" fill="#1E293B"/>
<g id="SVGRepo_iconCarrier">
<path id="Vector" opacity="0.1" d="M18.5183 14.4681V46.3876L30.4173 58.2855C30.4211 58.2855 30.4248 58.2857 30.4287 58.2857C43.7639 58.2857 54.9044 48.9151 57.6395 36.4014L35.7042 14.4681H18.5183ZM24.7058 22.1693L24.7071 22.171L24.7058 22.1718V22.1693ZM24.7058 24.6132L24.7042 24.6116L24.7057 24.6103L24.7072 24.6116L24.7058 24.6132ZM24.7092 22.1696L24.7087 22.1698L24.7092 22.1692V22.1696Z" fill="black"/>
<path id="Vector_2" d="M35.7018 14.4691H18.516V46.3886H42.3415V21.1083L35.7018 14.4691Z" fill="white"/>
<path id="Vector_3" d="M35.7018 21.1083H42.3416L35.7018 14.4691V21.1083Z" fill="#E1E6E9"/>
<path id="Vector_4" d="M42.3416 21.1083H35.7018L42.3416 25.7103V21.1083Z" fill="#EBF0F3"/>
<g id="Group">
<path id="Vector_5" d="M24.7031 22.5821L24.706 22.584V22.5815L24.7072 22.5832L24.7087 22.5823L24.7092 22.5816V22.582L25.7552 21.8829H25.7554V20.7244C25.6762 20.7788 25.6003 20.8379 25.5289 20.9023C25.0699 21.3172 24.6197 21.2461 24.6197 21.2461C24.3451 21.2533 23.9538 20.972 23.7871 20.841C23.7446 20.8077 23.701 20.7758 23.6563 20.7456V21.8828L24.7031 22.5821Z" fill="#F6C358"/>
<path id="Vector_6" d="M24.7058 22.1719V22.1718L24.3674 22.6327L24.7058 22.1719Z" fill="#F6C358"/>
</g>
<path id="Vector_7" d="M26.455 19.4896C26.455 19.4896 26.5155 19.0812 26.7247 18.7457C26.7754 18.6642 26.8032 18.5706 26.8032 18.4746V17.419C26.8032 17.419 26.7373 16.9014 26.2291 16.779C26.2291 16.779 26.4362 16.3382 25.8997 16.234H23.9233C23.2008 16.234 22.615 16.8196 22.615 17.5422V18.3177C22.615 18.4857 22.6713 18.6491 22.7764 18.7802C22.8593 18.8833 22.9452 19.0454 22.9585 19.28" fill="#64798A"/>
<path id="Vector_8" d="M24.6197 21.4658C24.6197 21.4658 25.0699 21.5369 25.529 21.122C25.6003 21.0576 25.6762 20.9986 25.7554 20.9441C25.7632 20.9387 25.7708 20.9331 25.7787 20.9278C25.9819 20.7913 26.3724 20.4129 26.4551 19.4895V18.266C26.4551 18.266 26.4081 17.8331 25.9469 17.6637L25.2614 17.4231C25.1336 17.3783 24.9941 17.3801 24.8675 17.4281C24.7255 17.482 24.5379 17.5518 24.4199 17.5895C24.3634 17.6077 24.3044 17.6167 24.245 17.6167H23.5937C23.5937 17.6167 23.0854 17.6826 22.9584 18.2518V19.2798V19.5177C22.9584 19.5177 22.9805 20.5176 23.6426 20.9558C23.6473 20.9589 23.6516 20.9623 23.6563 20.9654C23.701 20.9955 23.7446 21.0274 23.7871 21.0608C23.9539 21.1918 24.3451 21.4731 24.6197 21.4658Z" fill="#FCD462"/>
<g id="Group_2">
<path id="Vector_9" d="M25.0444 22.5432L24.8301 22.8508L25.028 24.0978L25.5238 23.1963L25.0444 22.5432Z" fill="#D5D6DB"/>
<path id="Vector_10" d="M24.4002 24.1744L24.6171 22.8075L24.3812 22.4689L23.8557 23.1845L24.4002 24.1744Z" fill="#D5D6DB"/>
<path id="Vector_11" d="M24.3674 22.6327L24.3531 22.6522L24.7058 22.1736V22.1719L24.3674 22.6327Z" fill="#D5D6DB"/>
</g>
<g id="Group_3">
<path id="Vector_12" d="M25.0503 23.9811L24.8822 22.9213L25.0643 22.6599L24.7059 22.1718V22.1719V22.1736L24.3531 22.6522L24.3492 22.6575L24.5329 22.9213L24.364 23.9858L24.7059 24.6074L25.0503 23.9813V23.9811Z" fill="#E56353"/>
<path id="Vector_13" d="M24.708 24.6112L24.7406 24.5785L24.707 24.6094L24.708 24.6112Z" fill="#E56353"/>
<path id="Vector_14" d="M24.7048 24.6094L24.6712 24.5785L24.7038 24.6112L24.7048 24.6094Z" fill="#E56353"/>
<path id="Vector_15" d="M24.7044 24.6122L24.7064 24.6143L24.7085 24.6122L24.7064 24.6104L24.7044 24.6122Z" fill="#E56353"/>
<path id="Vector_16" d="M24.7094 22.1693L24.7086 22.1701L24.7094 22.1696V22.1693Z" fill="#E56353"/>
<path id="Vector_17" d="M24.7059 22.1693V22.1726L24.7075 22.1715L24.7059 22.1693Z" fill="#E56353"/>
</g>
<g id="Group_4">
<path id="Vector_18" d="M24.7092 22.1695L24.7086 22.1699L24.7071 22.1709L24.7059 22.1718L25.0643 22.6599L25.4718 23.2149L26.32 21.673L25.7554 21.4706H25.7553L24.7092 22.1695Z" fill="#E1E6E9"/>
<path id="Vector_19" d="M24.3492 22.6575L24.3674 22.6327L24.7058 22.1718L24.7031 22.1699L23.6564 21.4706L23.0917 21.673L23.9399 23.2149L24.3492 22.6575Z" fill="#E1E6E9"/>
</g>
<g id="Group_5">
<path id="Vector_20" d="M24.7079 24.6112L24.709 24.6133H25.1505H28.5226C28.7639 24.6133 28.9476 24.3967 28.9083 24.1586L28.7183 23.0115C28.667 22.7022 28.4527 22.4445 28.1577 22.3379L26.3199 21.673" fill="#3A556A"/>
<path id="Vector_21" d="M24.7076 24.611C24.7066 24.61 24.7053 24.6098 24.7047 24.6105C24.704 24.6111 24.7043 24.6124 24.7053 24.6134C24.7063 24.6143 24.7076 24.6146 24.7082 24.6139C24.7089 24.6133 24.7086 24.6119 24.7076 24.611Z" fill="#3A556A"/>
</g>
<g id="Group_6">
<path id="Vector_22" d="M25.0503 23.9812L24.7059 24.6073L24.707 24.6093L24.7406 24.5784L26.4047 23.0563L26.1976 22.6611L26.8081 22.6517L26.32 21.673L25.4718 23.2148L25.0503 23.9812Z" fill="#2F4859"/>
<path id="Vector_23" d="M24.7046 24.6124L24.7066 24.6106L24.7051 24.6093L24.7038 24.6117L24.7046 24.6124Z" fill="#2F4859"/>
</g>
<path id="Vector_24" d="M24.7044 24.6117L24.7039 24.6112L23.0919 21.673L21.254 22.3379C20.9591 22.4445 20.7448 22.7022 20.6935 23.0115L20.5035 24.1586C20.4642 24.3967 20.6479 24.6133 20.8892 24.6133H24.2645H24.5251H24.5283H24.7058L24.7044 24.6117Z" fill="#3A556A"/>
<path id="Vector_25" d="M24.708 24.6112L24.707 24.6093L24.7059 24.6073L24.364 23.9858L23.9399 23.2148L23.0918 21.673L22.6037 22.6517L23.2141 22.6611L23.0071 23.0563L24.6712 24.5784L24.7048 24.6093L24.7059 24.6103L24.7075 24.6117L24.7092 24.6133L24.708 24.6112Z" fill="#2F4859"/>
<g id="Group_7">
<path id="Vector_26" d="M40.392 27.2152H20.4628V27.7954H40.392V27.2152Z" fill="#EBF0F3"/>
<path id="Vector_27" d="M40.392 29.7516H20.4628V30.3318H40.392V29.7516Z" fill="#EBF0F3"/>
<path id="Vector_28" d="M40.392 32.2905H20.4628V32.8707H40.392V32.2905Z" fill="#EBF0F3"/>
<path id="Vector_29" d="M40.392 34.8252H20.4628V35.4054H40.392V34.8252Z" fill="#EBF0F3"/>
<path id="Vector_30" d="M40.392 37.3596H20.4628V37.9398H40.392V37.3596Z" fill="#EBF0F3"/>
<path id="Vector_31" d="M40.392 39.8942H20.4628V40.4744H40.392V39.8942Z" fill="#EBF0F3"/>
<path id="Vector_32" d="M36.7322 42.4349H20.4628V43.0151H36.7322V42.4349Z" fill="#EBF0F3"/>
</g>
</g>
</g>
</svg>
