<svg width="40" height="40" viewBox="0 0 40 40" fill="none" xmlns="http://www.w3.org/2000/svg">
<g id="SVGRepo_iconCarrier">
<g id="Page-1">
<g id="Icon-Set">
<path id="file-document" fill-rule="evenodd" clip-rule="evenodd" d="M30.7692 10.0049C29.0708 10.0049 27.6923 8.88509 27.6923 7.50531V2.50613L36.9231 10.0049H30.7692ZM36.9231 35.0008C36.9231 36.3806 35.5446 37.5004 33.8462 37.5004H6.15385C4.45538 37.5004 3.07692 36.3806 3.07692 35.0008V5.00572C3.07692 3.62595 4.45538 2.50613 6.15385 2.50613H24.5723C24.5446 5.49939 24.6154 7.50531 24.6154 7.50531C24.6154 10.2661 27.3708 12.5045 30.7692 12.5045H36.9231V35.0008ZM27.6923 0.00653874V0.0415329C27.4954 0.0415329 26.6738 -0.019707 24.6154 0.00653874H6.15385C2.75538 0.00653874 0 2.24492 0 5.00572V35.0008C0 37.7616 2.75538 40 6.15385 40H33.8462C37.2446 40 40 37.7616 40 35.0008V12.5045V10.0049L27.6923 0.00653874Z" fill="#F1F5F9"/>
</g>
</g>
</g>
</svg>
