<svg width="100" height="100" viewBox="0 0 100 100" fill="none" xmlns="http://www.w3.org/2000/svg">
<g id="switch icon">
<rect id="switch icon_2" width="100" height="100" rx="30" fill="#1E293B"/>
<g id="SVGRepo_iconCarrier">
<path id="Vector" fill-rule="evenodd" clip-rule="evenodd" d="M69.6653 74.0847C70.8857 75.3051 72.8643 75.3051 74.0847 74.0847C75.3051 72.8643 75.3051 70.8857 74.0847 69.6653L54.4193 50L74.0847 30.3346C75.3051 29.1143 75.3051 27.1356 74.0847 25.9152C72.8643 24.6949 70.8857 24.6949 69.6653 25.9152L47.7903 47.7903C46.57 49.0106 46.57 50.9893 47.7903 52.2097L69.6653 74.0847ZM47.7903 74.0847C49.0106 75.3051 50.9893 75.3051 52.2097 74.0847C53.43 72.8643 53.43 70.8857 52.2097 69.6653L32.5443 50L52.2097 30.3346C53.43 29.1143 53.43 27.1356 52.2097 25.9152C50.9893 24.6949 49.0106 24.6949 47.7903 25.9152L25.9152 47.7903C24.6949 49.0106 24.6949 50.9893 25.9152 52.2097L47.7903 74.0847Z" fill="#F1F5F9"/>
</g>
</g>
</svg>
